<svg width="15" height="15" viewBox="0 0 15 15" fill="none" xmlns="http://www.w3.org/2000/svg">
<path d="M1.00024 1V13.7144H13.7146" stroke="#DAAF5A" stroke-linecap="round" stroke-linejoin="round"/>
<path d="M4.93847 4.21167C5.91927 4.21167 6.71435 5.00676 6.71435 5.98755C6.71435 6.96834 5.91927 7.76343 4.93847 7.76343C3.95768 7.76343 3.1626 6.96834 3.1626 5.98755C3.1626 5.00676 3.95768 4.21167 4.93847 4.21167Z" stroke="#DAAF5A" stroke-linecap="round" stroke-linejoin="round"/>
<path d="M11.9385 1.24292C12.9192 1.24292 13.7143 2.03801 13.7143 3.0188C13.7143 3.99959 12.9192 4.79468 11.9385 4.79468C10.9577 4.79468 10.1626 3.99959 10.1626 3.0188C10.1626 2.03801 10.9577 1.24292 11.9385 1.24292Z" stroke="#DAAF5A" stroke-linecap="round" stroke-linejoin="round"/>
<path d="M9.46972 7.76343C10.4505 7.76343 11.2456 8.55852 11.2456 9.53931C11.2456 10.5201 10.4505 11.3152 9.46972 11.3152C8.48893 11.3152 7.69385 10.5201 7.69385 9.53931C7.69385 8.55852 8.48893 7.76343 9.46972 7.76343Z" stroke="#DAAF5A" stroke-linecap="round" stroke-linejoin="round"/>
<path d="M1 9.78121L3.53418 7.07495" stroke="#DAAF5A" stroke-linecap="round" stroke-linejoin="round"/>
<path d="M6.4873 6.8728L8.1123 8.38843" stroke="#DAAF5A" stroke-linecap="round" stroke-linejoin="round"/>
<path d="M10.2529 7.93529L11.4248 4.71655" stroke="#DAAF5A" stroke-linecap="round" stroke-linejoin="round"/>
</svg>
